HIERARCHY
ROOT Hips
{
	OFFSET -0.001795 -0.223333 0.028219
	CHANNELS 6 Xposition Yposition Zposition Zrotation Yrotation Xrotation 
	JOINT LeftUpLeg
	{
		OFFSET 0.069520 -0.091406 -0.006815
		CHANNELS 3 Zrotation Yrotation Xrotation
		JOINT LeftLeg
		{
			OFFSET 0.034277 -0.375199 -0.004496
			CHANNELS 3 Zrotation Yrotation Xrotation
			JOINT LeftFoot
			{
				OFFSET -0.013596 -0.397961 -0.043693
				CHANNELS 3 Zrotation Yrotation Xrotation
				JOINT LeftToe
				{
					OFFSET 0.026358 -0.055791 0.119288
					CHANNELS 3 Zrotation Yrotation Xrotation
					End Site
					{
						OFFSET 0.000000 0.000000 0.000000
					}
				}
			}
		}
	}
	JOINT RightUpLeg
	{
		OFFSET -0.067670 -0.090522 -0.004320
		CHANNELS 3 Zrotation Yrotation Xrotation
		JOINT RightLeg
		{
			OFFSET -0.038290 -0.382569 -0.008850
			CHANNELS 3 Zrotation Yrotation Xrotation
			JOINT RightFoot
			{
				OFFSET 0.015774 -0.398415 -0.042312
				CHANNELS 3 Zrotation Yrotation Xrotation
				JOINT RightToe
				{
					OFFSET -0.025372 -0.048144 0.123348
					CHANNELS 3 Zrotation Yrotation Xrotation
					End Site
					{
						OFFSET 0.000000 0.000000 0.000000
					}
				}
			}
		}
	}
	JOINT Spine
	{
		OFFSET -0.002533 0.108963 -0.026696
		CHANNELS 3 Zrotation Yrotation Xrotation
		JOINT Spine1
		{
			OFFSET 0.005487 0.135180 0.001092
			CHANNELS 3 Zrotation Yrotation Xrotation
			JOINT Spine2
			{
				OFFSET 0.001457 0.052922 0.025425
				CHANNELS 3 Zrotation Yrotation Xrotation
				JOINT Neck
				{
					OFFSET -0.002778 0.213870 -0.042857
					CHANNELS 3 Zrotation Yrotation Xrotation
					JOINT Head
					{
						OFFSET 0.005152 0.064970 0.051349
						CHANNELS 3 Zrotation Yrotation Xrotation
						End Site
						{
							OFFSET 0.000000 0.000000 0.000000
						}
					}
				}
				JOINT LeftShoulder
				{
					OFFSET 0.078845 0.121749 -0.034090
					CHANNELS 3 Zrotation Yrotation Xrotation
					JOINT LeftArm
					{
						OFFSET 0.090977 0.030469 -0.008868
						CHANNELS 3 Zrotation Yrotation Xrotation
						JOINT LeftForeArm
						{
							OFFSET 0.259612 -0.012772 -0.027456
							CHANNELS 3 Zrotation Yrotation Xrotation
							JOINT LeftHand
							{
								OFFSET 0.249234 0.008986 -0.001171
								CHANNELS 3 Zrotation Yrotation Xrotation
								End Site
								{
									OFFSET 0.000000 0.000000 0.000000
								}
							}
						}
					}
				}
				JOINT RightShoulder
				{
					OFFSET -0.081759 0.118833 -0.038615
					CHANNELS 3 Zrotation Yrotation Xrotation
					JOINT RightArm
					{
						OFFSET -0.096012 0.032551 -0.009143
						CHANNELS 3 Zrotation Yrotation Xrotation
						JOINT RightForeArm
						{
							OFFSET -0.253742 -0.013329 -0.021401
							CHANNELS 3 Zrotation Yrotation Xrotation
							JOINT RightHand
							{
								OFFSET -0.255298 0.007772 -0.005559
								CHANNELS 3 Zrotation Yrotation Xrotation
								End Site
								{
									OFFSET 0.000000 0.000000 0.000000
								}
							}
						}
					}
				}
			}
		}
	}
}
MOTION
Frames: 10
Frame Time: 0.050000
-0.098058 0.939829 0.205443 -0.767593 14.226263 -3.398478 9.877810 -0.448299 2.338506 -4.046500 0.307067 1.760189 4.832177 12.734293 9.378279 0.000000 0.000000 0.000000 -9.058198 -0.157972 -3.479948 1.965252 -0.237466 7.351512 -1.626076 -6.146139 10.953705 0.000000 0.000000 0.000000 -1.353771 -1.593297 25.311567 9.641432 -2.312127 -17.224680 0.683385 -3.059440 22.118013 -3.923113 4.460453 -28.687901 0.000000 0.000000 0.000000 -20.737104 -14.595013 5.474512 -42.535670 -18.687234 -0.086172 -116.313294 -56.591708 86.384529 0.000000 0.000000 0.000000 14.614137 21.072061 10.471651 43.983717 18.343087 0.336478 43.540551 70.868259 36.737656 0.000000 0.000000 0.000000 
-0.098150 0.939391 0.203146 -0.678122 14.229967 -3.414038 10.001592 -0.453824 2.223919 -4.255785 0.325550 1.799672 4.821992 12.678061 9.230659 0.000000 0.000000 0.000000 -9.074853 -0.166946 -3.091438 2.125520 -0.267383 6.969634 -1.728994 -6.288680 10.486680 0.000000 0.000000 0.000000 -1.278963 -1.600308 25.237071 9.774471 -2.336189 -17.423021 0.909549 -2.612497 22.460135 -4.279663 4.725881 -29.070019 0.000000 0.000000 0.000000 -20.835251 -14.456780 5.285315 -43.345800 -19.584289 0.246158 -117.942505 -55.184327 86.468927 0.000000 0.000000 0.000000 14.705903 20.887531 10.488804 44.569940 17.957999 0.198968 40.859871 69.855633 34.153620 0.000000 0.000000 0.000000 
-0.098671 0.939188 0.201175 -0.579366 14.529545 -3.263467 9.993094 -0.459915 1.893553 -4.083296 0.305166 2.094176 4.493214 12.165271 9.149766 0.000000 0.000000 0.000000 -9.102832 -0.176072 -2.942504 2.056452 -0.256094 6.720565 -1.829134 -6.454019 10.477801 0.000000 0.000000 0.000000 -0.998370 -1.642305 24.899485 9.799865 -2.351065 -17.279827 1.012573 -2.594832 22.422552 -4.845517 5.046555 -29.308120 0.000000 0.000000 0.000000 -21.384327 -14.138029 5.061478 -43.761189 -20.494272 0.611920 -119.038104 -54.238661 86.562472 0.000000 0.000000 0.000000 14.637028 21.085301 10.610565 45.158437 17.133120 -0.053907 40.078390 69.327678 33.272072 0.000000 0.000000 0.000000 
-0.099376 0.938797 0.199828 -0.527785 14.636273 -3.277289 9.983349 -0.461663 1.925859 -4.124270 0.307877 2.115768 4.426162 12.064194 9.143781 0.000000 0.000000 0.000000 -9.015193 -0.186730 -2.329537 2.155540 -0.273977 6.093517 -1.908464 -6.625239 10.602663 0.000000 0.000000 0.000000 -0.954601 -1.616262 24.519243 10.090348 -2.448777 -17.250779 1.104801 -2.156041 22.605678 -5.240906 5.333560 -29.434647 0.000000 0.000000 0.000000 -22.007315 -14.149209 4.923166 -44.022425 -20.880302 0.800358 -120.482048 -53.128722 86.704307 0.000000 0.000000 0.000000 14.686194 20.786884 10.576449 45.306665 16.535890 -0.286458 41.450421 68.733015 34.047401 0.000000 0.000000 0.000000 
-0.100231 0.938791 0.198865 -0.395440 14.802439 -3.222118 9.950101 -0.463377 1.873423 -4.111453 0.304295 2.219226 4.207272 11.697872 9.029807 0.000000 0.000000 0.000000 -9.111610 -0.206709 -1.847295 2.271426 -0.295668 5.520869 -1.920589 -6.655720 10.732163 0.000000 0.000000 0.000000 -0.788837 -1.626646 24.213116 9.835880 -2.323947 -17.541211 1.344937 -2.398368 22.958336 -5.723086 5.575376 -29.227155 0.000000 0.000000 0.000000 -22.246041 -13.957404 4.868709 -44.388341 -21.307689 0.928504 -121.406587 -52.410578 87.099390 0.000000 0.000000 0.000000 14.285953 20.611133 10.379611 45.749645 15.862376 -0.531530 41.380807 67.923114 33.477731 0.000000 0.000000 0.000000 
-0.101062 0.939208 0.198042 -0.422163 15.224350 -3.023381 10.278044 -0.502305 1.637394 -4.354441 0.320872 2.251733 3.892589 11.263168 9.140393 0.000000 0.000000 0.000000 -9.111899 -0.220129 -1.531337 2.468223 -0.334945 4.854415 -2.108286 -7.029064 11.079421 0.000000 0.000000 0.000000 -0.505559 -1.636769 23.538774 9.802219 -2.293306 -17.587379 1.343790 -2.389470 23.033988 -5.936026 5.727691 -29.109364 0.000000 0.000000 0.000000 -22.977761 -13.682179 4.619951 -44.573726 -21.427852 1.017794 -122.232944 -51.382317 86.691552 0.000000 0.000000 0.000000 14.133740 20.013873 10.121217 45.945521 14.896917 -0.893398 40.679977 67.630116 32.864196 0.000000 0.000000 0.000000 
-0.101777 0.940052 0.197108 -0.354866 15.317439 -2.878649 10.320882 -0.509221 1.515133 -4.340006 0.318245 2.274363 3.577911 10.801686 9.210265 0.000000 0.000000 0.000000 -8.949040 -0.218859 -1.200036 2.624755 -0.362618 4.342414 -2.209362 -7.225342 11.100388 0.000000 0.000000 0.000000 -0.069801 -1.674757 23.035489 9.649273 -2.197463 -17.930954 1.260317 -2.380516 23.370826 -6.032136 5.807977 -28.670967 0.000000 0.000000 0.000000 -23.462191 -13.517113 4.492915 -44.902494 -21.272479 0.968901 -123.282583 -50.842198 87.330848 0.000000 0.000000 0.000000 13.930949 19.305339 9.767280 46.222027 13.877406 -1.298518 40.284681 67.177161 32.369939 0.000000 0.000000 0.000000 
-0.102387 0.940958 0.196009 -0.341947 15.613870 -2.686946 10.569862 -0.540604 1.425860 -4.298348 0.311742 2.198787 3.056683 10.069398 9.402876 0.000000 0.000000 0.000000 -8.726484 -0.216198 -0.988773 2.766901 -0.389302 3.820773 -2.302174 -7.387027 11.203510 0.000000 0.000000 0.000000 0.277567 -1.686927 22.386581 9.638182 -2.180106 -17.957890 1.200179 -2.420300 23.418292 -5.937459 5.781406 -28.459679 0.000000 0.000000 0.000000 -23.986614 -13.291788 4.296748 -45.338740 -21.268317 1.019504 -123.668216 -50.167886 86.900343 0.000000 0.000000 0.000000 13.613605 18.633265 9.416684 46.424778 13.260239 -1.526917 37.762370 66.924596 30.468824 0.000000 0.000000 0.000000 
-0.102967 0.941408 0.194813 -0.279815 15.666822 -2.591900 10.536584 -0.539415 1.340697 -4.229527 0.303994 2.372757 2.837378 9.657649 9.201732 0.000000 0.000000 0.000000 -8.625816 -0.216231 -0.797291 2.898796 -0.411125 3.354420 -2.352426 -7.476220 11.134566 0.000000 0.000000 0.000000 0.587118 -1.721252 22.133030 9.471928 -2.082533 -18.316283 1.050488 -2.738646 23.545478 -5.840345 5.688233 -28.609383 0.000000 0.000000 0.000000 -24.585279 -13.088021 4.254348 -45.449243 -20.892105 0.872734 -124.345307 -49.494798 87.069982 0.000000 0.000000 0.000000 13.345130 18.155484 9.091806 46.542449 12.623310 -1.769603 36.981735 66.695194 29.751617 0.000000 0.000000 0.000000 
-0.103545 0.941476 0.193723 -0.269535 15.747869 -2.569985 10.595909 -0.551883 1.597891 -4.245152 0.305471 2.285725 2.606019 9.190066 8.922838 0.000000 0.000000 0.000000 -8.461400 -0.210760 -0.780546 2.946183 -0.419911 3.207967 -2.305065 -7.374886 11.164153 0.000000 0.000000 0.000000 0.977902 -1.759879 21.780798 9.257394 -1.998940 -18.399199 0.910313 -2.973556 23.553837 -5.572855 5.527615 -28.042599 0.000000 0.000000 0.000000 -25.019211 -13.141512 4.332481 -45.430311 -20.546504 0.742251 -124.193159 -48.793044 86.051455 0.000000 0.000000 0.000000 13.441678 17.702331 8.867889 46.395523 12.408832 -1.861574 36.739981 66.659738 29.529025 0.000000 0.000000 0.000000 
